# xmcd
#
# Track frame offsets:
#	150
#	14734
#	32324
#	46054
#	61390
#	73012
#	89472
#	102737
#	112987
#	127156
#	143470
#	156580
#	171050
#	187125
#	204189
#	223248
#	237766
#	252678
#	267347
#	287630
#
# Disc length: 4031 seconds
#
# Revision: 0
# Processed by: cddbd v1.5.2PL0 Copyright (c) Steve Scherf et al.
# Submitted via: EZCDAudioConverter 1.2.3.1
#
DISCID=320fbd14
DTITLE=Sérgio Reis e Almir Sater
DYEAR=2007
DGENRE=Sertanejo
TTITLE0=Sérgio Reis - SOLIDÃO DE AMIGOS
TTITLE1=Almir Sater - 7 SINAIS
TTITLE2=Sérgio Reis - CORAÇÃO VIRADO
TTITLE3=Almir Sater - NO RASTRO DA LUA CHEIA
TTITLE4=Sérgio Reis - TOCA SANFONEIRO
TTITLE5=Almir Sater - UM VIOLEIRO TOCA
TTITLE6=Sérgio Reis - CAMINHOS DE MINHA INFANCIA
TTITLE7=Almir Sater - SHALANA
TTITLE8=Sérgio Reis - GENTE DA MINHA TERRA
TTITLE9=Almir Sater - PLANICIE DE PRATA
TTITLE10=Sérgio Reis - SAUDADE DE MINHA TERRA
TTITLE11=Almir Sater - PEÃO
TTITLE12=Sérgio Reis - O MENINO DA PORTEIRA
TTITLE13=Almir Sater - MANEIRA SIMPLES
TTITLE14=Sérgio Reis - SERAFIM E SEUS FILHOS
TTITLE15=Almir Sater - CABECINHA NO OMBRO
TTITLE16=Sérgio Reis - PANELA VELHA
TTITLE17=Almir Sater - VARANDAS
TTITLE18=Sérgio Reis - PINGA NI MIM
TTITLE19=Almir Sater - TREM DO PANTANAL
EXTD=
EXTT0=
EXTT1=
EXTT2=
EXTT3=
EXTT4=
EXTT5=
EXTT6=
EXTT7=
EXTT8=
EXTT9=
EXTT10=
EXTT11=
EXTT12=
EXTT13=
EXTT14=
EXTT15=
EXTT16=
EXTT17=
EXTT18=
EXTT19=
PLAYORDER=
